<svg width="32" height="32" viewBox="0 0 32 32" fill="none" xmlns="http://www.w3.org/2000/svg">
<rect width="32" height="32" rx="16" fill="#EDEDE9"/>
<path fill-rule="evenodd" clip-rule="evenodd" d="M11.9375 8.375H7.875V16.5H11.9375C9.69385 16.5 7.875 18.3189 7.875 20.5625V24.625H16V20.5625C16 22.8061 17.8189 24.625 20.0625 24.625H24.125V16.5H20.0625C22.3061 16.5 24.125 14.6812 24.125 12.4375V8.375H16V12.4375C16 10.1938 14.1812 8.375 11.9375 8.375ZM16 16.5H11.9375C14.1812 16.5 16 18.3189 16 20.5625V16.5ZM16 16.5V12.4375C16 14.6812 17.8189 16.5 20.0625 16.5H16Z" fill="black"/>
<path d="M11.5755 12.8857V13.9241H10.9481V11.9501H11.5241V12.1886C11.6024 12.103 11.688 12.0357 11.781 11.9868C11.8763 11.9379 11.9864 11.9134 12.1112 11.9134C12.3069 11.9134 12.4658 11.977 12.5881 12.1042C12.7129 12.2314 12.7753 12.4149 12.7753 12.6546V13.9241H12.1479V12.8637C12.1479 12.739 12.1246 12.6436 12.0781 12.5775C12.0341 12.5115 11.9644 12.4785 11.869 12.4785C11.8176 12.4785 11.7687 12.4919 11.7222 12.5188C11.6782 12.5457 11.6428 12.5885 11.6158 12.6472C11.5889 12.7059 11.5755 12.7854 11.5755 12.8857Z" fill="#E8E8E3"/>
<path d="M20.113 22.5283C19.932 22.5283 19.7718 22.4965 19.6324 22.4329C19.4929 22.3717 19.3829 22.2837 19.3022 22.1687C19.2214 22.0537 19.1774 21.9204 19.1701 21.7688H19.7791C19.7914 21.8568 19.8244 21.9241 19.8782 21.9706C19.9345 22.017 20.0115 22.0403 20.1093 22.0403C20.2268 22.0403 20.3148 22.0097 20.3735 21.9486C20.4347 21.8874 20.4652 21.7969 20.4652 21.677V21.4459C20.4139 21.5193 20.3442 21.5768 20.2561 21.6183C20.1681 21.6599 20.0702 21.6807 19.9626 21.6807C19.8036 21.6807 19.6593 21.6391 19.5296 21.556C19.4 21.4704 19.2973 21.3554 19.2214 21.2111C19.1456 21.0668 19.1077 20.9053 19.1077 20.7268C19.1077 20.5409 19.1432 20.377 19.2141 20.2351C19.285 20.0908 19.3829 19.9783 19.5076 19.8976C19.6324 19.8144 19.7755 19.7728 19.9369 19.7728C20.0616 19.7728 20.1705 19.7924 20.2634 19.8315C20.3564 19.8682 20.4408 19.9281 20.5166 20.0113V19.8095H21.0926V21.6697C21.0926 21.9363 21.0046 22.1455 20.8285 22.2971C20.6548 22.4512 20.4163 22.5283 20.113 22.5283ZM19.7424 20.7304C19.7424 20.8527 19.7742 20.9506 19.8378 21.024C19.9014 21.0973 19.9858 21.134 20.091 21.134C20.1644 21.134 20.228 21.1169 20.2818 21.0827C20.338 21.0484 20.3809 21.0007 20.4102 20.9396C20.442 20.8784 20.4579 20.8075 20.4579 20.7268C20.4579 20.6045 20.4237 20.5066 20.3552 20.4332C20.2891 20.3574 20.2011 20.3195 20.091 20.3195C19.9858 20.3195 19.9014 20.3574 19.8378 20.4332C19.7742 20.5066 19.7424 20.6057 19.7424 20.7304Z" fill="#E8E8E3"/>
</svg>
