<svg width="121" height="45" viewBox="0 0 121 45" fill="none" xmlns="http://www.w3.org/2000/svg">
<path d="M10.08 25.3774V36.6974H3.24V7.97739H10.08V17.4974C10.8533 16.6441 11.68 15.9774 12.56 15.4974C13.44 15.0174 14.56 14.7774 15.92 14.7774C18.0533 14.7774 19.7867 15.4707 21.12 16.8574C22.48 18.2441 23.16 20.2441 23.16 22.8574V36.6974H16.32V25.1374C16.32 23.7774 16.0667 22.7374 15.56 22.0174C15.08 21.2974 14.32 20.9374 13.28 20.9374C12.72 20.9374 12.1867 21.0841 11.68 21.3774C11.2 21.6707 10.8133 22.1374 10.52 22.7774C10.2267 23.4174 10.08 24.2841 10.08 25.3774ZM38.2188 27.4574V15.1774H45.0588V36.6974H38.7788V34.3774C38.1921 35.1774 37.3521 35.8307 36.2588 36.3374C35.1921 36.8441 34.0321 37.0974 32.7788 37.0974C31.3654 37.0974 30.0854 36.8041 28.9388 36.2174C27.7921 35.6041 26.8854 34.6841 26.2188 33.4574C25.5788 32.2041 25.2588 30.6307 25.2588 28.7374V15.1774H32.0988V27.4574C32.0988 28.6307 32.3654 29.5107 32.8988 30.0974C33.4588 30.6841 34.2188 30.9774 35.1788 30.9774C35.6321 30.9774 36.0854 30.8574 36.5388 30.6174C37.0188 30.3507 37.4188 29.9641 37.7388 29.4574C38.0588 28.9241 38.2188 28.2574 38.2188 27.4574ZM68.2013 15.1774L57.9613 44.4174H50.4813L53.4813 36.4574L45.0812 15.1774H52.5213L57.1613 28.4974L61.3213 15.1774H68.2013ZM75.0956 25.3774V36.6974H68.2556V15.1774H74.5356V17.7774C75.389 16.8441 76.3223 16.1107 77.3356 15.5774C78.3756 15.0441 79.5756 14.7774 80.9356 14.7774C83.069 14.7774 84.8023 15.4707 86.1356 16.8574C87.4956 18.2441 88.1756 20.2441 88.1756 22.8574V36.6974H81.3356V25.1374C81.3356 23.7774 81.0823 22.7374 80.5756 22.0174C80.0956 21.2974 79.3356 20.9374 78.2956 20.9374C77.7356 20.9374 77.2023 21.0841 76.6956 21.3774C76.2156 21.6707 75.829 22.1374 75.5356 22.7774C75.2423 23.4174 75.0956 24.2841 75.0956 25.3774ZM100.074 44.8174C98.101 44.8174 96.3544 44.4707 94.8344 43.7774C93.3144 43.1107 92.1144 42.1507 91.2344 40.8974C90.3544 39.6441 89.8744 38.1907 89.7944 36.5374H96.4344C96.5677 37.4974 96.9277 38.2307 97.5144 38.7374C98.1277 39.2441 98.9677 39.4974 100.034 39.4974C101.314 39.4974 102.274 39.1641 102.914 38.4974C103.581 37.8307 103.914 36.8441 103.914 35.5374V33.0174C103.354 33.8174 102.594 34.4441 101.634 34.8974C100.674 35.3507 99.6077 35.5774 98.4344 35.5774C96.701 35.5774 95.1277 35.1241 93.7144 34.2174C92.301 33.2841 91.181 32.0307 90.3544 30.4574C89.5277 28.8841 89.1144 27.1241 89.1144 25.1774C89.1144 23.1507 89.501 21.3641 90.2744 19.8174C91.0477 18.2441 92.1144 17.0174 93.4744 16.1374C94.8344 15.2307 96.3944 14.7774 98.1544 14.7774C99.5144 14.7774 100.701 14.9907 101.714 15.4174C102.728 15.8174 103.648 16.4707 104.474 17.3774V15.1774H110.754V35.4574C110.754 38.3641 109.794 40.6441 107.874 42.2974C105.981 43.9774 103.381 44.8174 100.074 44.8174ZM96.0344 25.2174C96.0344 26.5507 96.381 27.6174 97.0744 28.4174C97.7677 29.2174 98.6877 29.6174 99.8344 29.6174C100.634 29.6174 101.328 29.4307 101.914 29.0574C102.528 28.6841 102.994 28.1641 103.314 27.4974C103.661 26.8307 103.834 26.0574 103.834 25.1774C103.834 23.8441 103.461 22.7774 102.714 21.9774C101.994 21.1507 101.034 20.7374 99.8344 20.7374C98.6877 20.7374 97.7677 21.1507 97.0744 21.9774C96.381 22.7774 96.0344 23.8574 96.0344 25.2174Z" fill="#0E0E0C"/>
<path fill-rule="evenodd" clip-rule="evenodd" d="M113.5 1.5H111V6.50001H113.5C112.119 6.50001 111 7.61931 111 9.00001V11.5H116V9.00001C116 10.3807 117.119 11.5 118.5 11.5H121V6.50001H118.5C119.881 6.50001 121 5.38072 121 4V1.5H116V4C116 2.61929 114.881 1.5 113.5 1.5ZM116 6.50001H113.5C114.881 6.50001 116 7.61931 116 9.00001V6.50001ZM116 6.50001V4C116 5.38072 117.119 6.50001 118.5 6.50001H116Z" fill="black"/>
</svg>
